# xmcd CD database file
#
# Track frame offsets:
#	182
#	17337
#	37025
#	56595
#	80975
#	101740
#	122332
#	142367
#	161800
#	183642
#
# Disc length: 2703 seconds
#
# Revision: 1
# Processed by: cddbd v1.4PL0 Copyright (c) Steve Scherf et al.
# Submitted via: CDex 1.50beta8
#
DISCID=8e0a8d0a
DTITLE=COCO BAND - MERENGUE TOTAL !
DYEAR=1990
DGENRE=Merengue
TTITLE0=LA FALDITA
TTITLE1=LA PELIONA
TTITLE2=LA DIABLA
TTITLE3=LA META DEL VAGO
TTITLE4=EL BATECITO
TTITLE5=LA MANITO
TTITLE6=NO ME QUERIA NADA
TTITLE7=CHUPO YO, CHUPA TU
TTITLE8=SE ME FUE MARIA
TTITLE9=A MI QUE ME IMPORTA
EXTD=YEAR: 1990
EXTT0=
EXTT1=
EXTT2=
EXTT3=
EXTT4=
EXTT5=
EXTT6=
EXTT7=
EXTT8=
EXTT9=
PLAYORDER=
